<svg width="16" height="16" viewBox="0 0 16 16" fill="none" xmlns="http://www.w3.org/2000/svg">
<g id="apartment">
<mask id="mask0_92_607" style="mask-type:alpha" maskUnits="userSpaceOnUse" x="0" y="0" width="16" height="16">
<rect id="Bounding box" y="0.097168" width="15.8061" height="15.8061" fill="#D9D9D9"/>
</mask>
<g mask="url(#mask0_92_607)">
<path id="apartment_2" d="M1.9751 13.9278V4.70759H4.60945V2.07324H11.1953V7.34195H13.8297V13.9278H8.56098V11.2935H7.2438V13.9278H1.9751ZM3.29227 12.6106H4.60945V11.2935H3.29227V12.6106ZM3.29227 9.9763H4.60945V8.65912H3.29227V9.9763ZM3.29227 7.34195H4.60945V6.02477H3.29227V7.34195ZM5.92663 9.9763H7.2438V8.65912H5.92663V9.9763ZM5.92663 7.34195H7.2438V6.02477H5.92663V7.34195ZM5.92663 4.70759H7.2438V3.39042H5.92663V4.70759ZM8.56098 9.9763H9.87815V8.65912H8.56098V9.9763ZM8.56098 7.34195H9.87815V6.02477H8.56098V7.34195ZM8.56098 4.70759H9.87815V3.39042H8.56098V4.70759ZM11.1953 12.6106H12.5125V11.2935H11.1953V12.6106ZM11.1953 9.9763H12.5125V8.65912H11.1953V9.9763Z" fill="#545454"/>
</g>
</g>
</svg>
