<svg width="16" height="16" viewBox="0 0 16 16" fill="none" xmlns="http://www.w3.org/2000/svg">
<g id="forum">
<mask id="mask0_92_597" style="mask-type:alpha" maskUnits="userSpaceOnUse" x="0" y="0" width="16" height="16">
<rect id="Bounding box" width="16" height="16" fill="#D9D9D9"/>
</mask>
<g mask="url(#mask0_92_597)">
<path id="forum_2" d="M4.66683 12.0002C4.47794 12.0002 4.31961 11.9363 4.19183 11.8085C4.06405 11.6807 4.00016 11.5224 4.00016 11.3335V10.0002H12.6668V4.00016H14.0002C14.1891 4.00016 14.3474 4.06405 14.4752 4.19183C14.6029 4.31961 14.6668 4.47794 14.6668 4.66683V14.6668L12.0002 12.0002H4.66683ZM1.3335 11.3335V2.00016C1.3335 1.81127 1.39738 1.65294 1.52516 1.52516C1.65294 1.39738 1.81127 1.3335 2.00016 1.3335H10.6668C10.8557 1.3335 11.0141 1.39738 11.1418 1.52516C11.2696 1.65294 11.3335 1.81127 11.3335 2.00016V8.00016C11.3335 8.18905 11.2696 8.34738 11.1418 8.47516C11.0141 8.60294 10.8557 8.66683 10.6668 8.66683H4.00016L1.3335 11.3335ZM10.0002 7.3335V2.66683H2.66683V7.3335H10.0002Z" fill="#545454"/>
</g>
</g>
</svg>
