<svg width="16" height="16" viewBox="0 0 16 16" fill="none" xmlns="http://www.w3.org/2000/svg">
<g id="notifications">
<mask id="mask0_92_587" style="mask-type:alpha" maskUnits="userSpaceOnUse" x="0" y="0" width="16" height="16">
<rect id="Bounding box" width="16" height="16" fill="#D9D9D9"/>
</mask>
<g mask="url(#mask0_92_587)">
<path id="notifications_2" d="M2.6665 12.6668V11.3335H3.99984V6.66683C3.99984 5.74461 4.27762 4.92516 4.83317 4.2085C5.38873 3.49183 6.11095 3.02238 6.99984 2.80016V2.3335C6.99984 2.05572 7.09706 1.81961 7.2915 1.62516C7.48595 1.43072 7.72206 1.3335 7.99984 1.3335C8.27762 1.3335 8.51373 1.43072 8.70817 1.62516C8.90262 1.81961 8.99984 2.05572 8.99984 2.3335V2.80016C9.88873 3.02238 10.6109 3.49183 11.1665 4.2085C11.7221 4.92516 11.9998 5.74461 11.9998 6.66683V11.3335H13.3332V12.6668H2.6665ZM7.99984 14.6668C7.63317 14.6668 7.31928 14.5363 7.05817 14.2752C6.79706 14.0141 6.6665 13.7002 6.6665 13.3335H9.33317C9.33317 13.7002 9.20262 14.0141 8.9415 14.2752C8.68039 14.5363 8.3665 14.6668 7.99984 14.6668ZM5.33317 11.3335H10.6665V6.66683C10.6665 5.9335 10.4054 5.30572 9.88317 4.7835C9.36095 4.26127 8.73317 4.00016 7.99984 4.00016C7.2665 4.00016 6.63873 4.26127 6.1165 4.7835C5.59428 5.30572 5.33317 5.9335 5.33317 6.66683V11.3335Z" fill="#545454"/>
</g>
</g>
</svg>
