<svg width="16" height="16" viewBox="0 0 16 16" fill="none" xmlns="http://www.w3.org/2000/svg">
<g id="person">
<mask id="mask0_16_2028" style="mask-type:alpha" maskUnits="userSpaceOnUse" x="0" y="0" width="16" height="16">
<rect id="Bounding box" width="16" height="16" fill="#D9D9D9"/>
</mask>
<g mask="url(#mask0_16_2028)">
<path id="person_2" d="M8.00008 8.00008C7.26675 8.00008 6.63897 7.73897 6.11675 7.21675C5.59453 6.69453 5.33341 6.06675 5.33341 5.33341C5.33341 4.60008 5.59453 3.9723 6.11675 3.45008C6.63897 2.92786 7.26675 2.66675 8.00008 2.66675C8.73341 2.66675 9.36119 2.92786 9.88341 3.45008C10.4056 3.9723 10.6667 4.60008 10.6667 5.33341C10.6667 6.06675 10.4056 6.69453 9.88341 7.21675C9.36119 7.73897 8.73341 8.00008 8.00008 8.00008ZM2.66675 13.3334V11.4667C2.66675 11.089 2.76397 10.7417 2.95841 10.4251C3.15286 10.1084 3.41119 9.86675 3.73341 9.70008C4.4223 9.35564 5.1223 9.0973 5.83341 8.92508C6.54453 8.75286 7.26675 8.66675 8.00008 8.66675C8.73341 8.66675 9.45564 8.75286 10.1667 8.92508C10.8779 9.0973 11.5779 9.35564 12.2667 9.70008C12.589 9.86675 12.8473 10.1084 13.0417 10.4251C13.2362 10.7417 13.3334 11.089 13.3334 11.4667V13.3334H2.66675ZM4.00008 12.0001H12.0001V11.4667C12.0001 11.3445 11.9695 11.2334 11.9084 11.1334C11.8473 11.0334 11.7667 10.9556 11.6667 10.9001C11.0667 10.6001 10.4612 10.3751 9.85008 10.2251C9.23897 10.0751 8.6223 10.0001 8.00008 10.0001C7.37786 10.0001 6.76119 10.0751 6.15008 10.2251C5.53897 10.3751 4.93341 10.6001 4.33341 10.9001C4.23341 10.9556 4.15286 11.0334 4.09175 11.1334C4.03064 11.2334 4.00008 11.3445 4.00008 11.4667V12.0001ZM8.00008 6.66675C8.36675 6.66675 8.68064 6.53619 8.94175 6.27508C9.20286 6.01397 9.33341 5.70008 9.33341 5.33341C9.33341 4.96675 9.20286 4.65286 8.94175 4.39175C8.68064 4.13064 8.36675 4.00008 8.00008 4.00008C7.63341 4.00008 7.31953 4.13064 7.05841 4.39175C6.7973 4.65286 6.66675 4.96675 6.66675 5.33341C6.66675 5.70008 6.7973 6.01397 7.05841 6.27508C7.31953 6.53619 7.63341 6.66675 8.00008 6.66675Z" fill="#545454"/>
</g>
</g>
</svg>
