<svg width="61" height="61" viewBox="0 0 61 61" fill="none" xmlns="http://www.w3.org/2000/svg">
<circle cx="30.5" cy="30.5" r="30.5" fill="#E8EFF8"/>
<g clip-path="url(#clip0_69_472)">
<rect width="32.3002" height="25.4167" transform="translate(12.707 19.0625)" fill="#E8EFF8"/>
<path d="M41.9495 29.0406C42.1296 29.7264 42.8325 30.1378 43.5268 29.9492C44.2126 29.7692 44.6241 29.0663 44.4355 28.3719C44.2555 27.6862 43.5526 27.2747 42.8582 27.4633C42.181 27.6519 41.7695 28.3548 41.9495 29.0406Z" fill="#2A4C87"/>
<path d="M40.21 30.4122C40.6729 30.2836 40.9558 29.8036 40.8272 29.3407C40.6987 28.8778 40.2186 28.5949 39.7557 28.7235C39.2928 28.852 39.0099 29.3321 39.1385 29.795C39.2585 30.2579 39.7386 30.5322 40.21 30.4122Z" fill="#2A4C87"/>
<path d="M37.636 30.8577C37.9789 30.7634 38.1846 30.4119 38.0903 30.069C37.996 29.7261 37.6446 29.5204 37.3017 29.6147C36.9588 29.709 36.7531 30.0605 36.8474 30.4033C36.9417 30.7462 37.2931 30.952 37.636 30.8577Z" fill="#2A4C87"/>
<path d="M35.6381 31.1584C35.8524 31.0984 35.981 30.8755 35.9296 30.6612C35.8782 30.4469 35.6467 30.3183 35.4324 30.3697C35.2181 30.4297 35.0895 30.6526 35.141 30.8669C35.1924 31.0812 35.4153 31.2098 35.6381 31.1584Z" fill="#2E4E88"/>
<path d="M40.9986 26.4346C41.3243 26.9918 42.0358 27.1889 42.593 26.8632C43.1502 26.5374 43.3474 25.8259 43.0216 25.2687C42.6959 24.7115 41.9844 24.5144 41.4272 24.8401C40.87 25.1659 40.6728 25.8774 40.9986 26.4346Z" fill="#1F3D70"/>
<path d="M38.4166 27.9176C38.6395 28.312 39.1367 28.4405 39.531 28.2177C39.9253 27.9948 40.0539 27.4976 39.831 27.1033C39.6082 26.7089 39.111 26.5804 38.7166 26.8032C38.3309 27.0261 38.1937 27.5233 38.4166 27.9176Z" fill="#1F3D70"/>
<path d="M36.5811 28.3035C36.2982 28.4664 36.2039 28.8178 36.3668 29.1007C36.5297 29.3836 36.8811 29.4779 37.164 29.315C37.4469 29.1522 37.5412 28.8007 37.3783 28.5178C37.224 28.2435 36.864 28.1492 36.5811 28.3035Z" fill="#1F3D70"/>
<path d="M34.9448 29.4865C34.7647 29.5894 34.6962 29.8208 34.799 30.0009C34.9019 30.1809 35.1333 30.2495 35.3134 30.1466C35.4934 30.0437 35.562 29.8123 35.4591 29.6323C35.3562 29.4522 35.1248 29.3837 34.9448 29.4865Z" fill="#1F3D70"/>
<path d="M40.8697 24.1461C41.2812 23.7346 41.2812 23.0746 40.8697 22.6631C40.4583 22.2516 39.7982 22.2516 39.3867 22.6631C38.9753 23.0746 38.9753 23.7346 39.3867 24.1461C39.7896 24.5576 40.4583 24.5576 40.8697 24.1461Z" fill="#194C88"/>
<path d="M38.3053 25.2172C38.0053 24.9172 37.5253 24.9172 37.2338 25.2172C36.9338 25.5172 36.9338 25.9973 37.2338 26.2887C37.5338 26.5888 38.0139 26.5888 38.3053 26.2887C38.6054 25.9887 38.6054 25.5087 38.3053 25.2172Z" fill="#194C88"/>
<path d="M35.5625 27.2153C35.3568 27.421 35.3568 27.7553 35.5625 27.961C35.7682 28.1668 36.1026 28.1668 36.3083 27.961C36.514 27.7553 36.514 27.421 36.3083 27.2238C36.1026 27.0095 35.7682 27.0095 35.5625 27.2153Z" fill="#194C88"/>
<path d="M34.2679 29.2553C34.4051 29.3925 34.6279 29.3925 34.7651 29.2553C34.9022 29.1182 34.9022 28.8953 34.7651 28.7581C34.6279 28.621 34.4051 28.621 34.2679 28.7581C34.1308 28.8953 34.1308 29.1182 34.2679 29.2553Z" fill="#194C88"/>
<path d="M37.1749 22.38C37.6463 22.6543 38.255 22.4915 38.5293 22.02C38.8036 21.5485 38.6407 20.9399 38.1693 20.6656C37.6978 20.3913 37.0892 20.5541 36.8148 21.0256C36.532 21.4971 36.6948 22.1057 37.1749 22.38Z" fill="#3468A3"/>
<path d="M35.4009 24.0517C35.2038 24.386 35.3238 24.8146 35.6581 25.0117C35.9924 25.2089 36.421 25.0889 36.6182 24.7546C36.8153 24.4203 36.6953 23.9916 36.361 23.7945C36.0181 23.5973 35.5895 23.7173 35.4009 24.0517Z" fill="#3468A3"/>
<path d="M34.9356 26.2463C34.7127 26.1177 34.4298 26.1949 34.3013 26.4178C34.1727 26.6406 34.2498 26.9235 34.4727 27.0521C34.6956 27.1807 34.9785 27.1035 35.107 26.8807C35.2356 26.6578 35.1585 26.3749 34.9356 26.2463Z" fill="#3468A3"/>
<path d="M33.8552 28.115C33.7009 28.0293 33.5037 28.0807 33.418 28.235C33.3323 28.3893 33.3837 28.5865 33.538 28.6722C33.6923 28.7579 33.8895 28.7065 33.9752 28.5522C34.0609 28.3979 34.0095 28.2007 33.8552 28.115Z" fill="#3468A3"/>
<path d="M34.5693 21.2397C35.0665 21.3768 35.5808 21.0768 35.7094 20.5796C35.8466 20.0824 35.5465 19.5681 35.0493 19.4395C34.5522 19.3109 34.0378 19.6024 33.9092 20.0996C33.7721 20.5968 34.0721 21.1111 34.5693 21.2397Z" fill="#4C8DCB"/>
<path d="M33.78 24.1712C34.1229 24.2654 34.4743 24.0597 34.5686 23.7168C34.6629 23.3739 34.4572 23.0225 34.1143 22.9282C33.7714 22.8339 33.4199 23.0396 33.3257 23.3825C33.2399 23.7254 33.4371 24.0769 33.78 24.1712Z" fill="#4C8DCB"/>
<path d="M33.1616 26.486C33.393 26.546 33.633 26.4088 33.693 26.1774C33.753 25.9459 33.6159 25.7059 33.3844 25.6459C33.153 25.5859 32.913 25.7231 32.853 25.9545C32.7929 26.1774 32.9301 26.4174 33.1616 26.486Z" fill="#4C8DCB"/>
<path d="M32.4762 27.9265C32.4333 28.0808 32.5276 28.2437 32.6819 28.2866C32.8362 28.3294 32.9991 28.2351 33.0419 28.0808C33.0848 27.9265 32.9905 27.7637 32.8362 27.7208C32.6733 27.6779 32.5105 27.7722 32.4762 27.9265Z" fill="#4C8DCB"/>
<path d="M31.7389 20.8112C32.2189 20.8112 32.6132 20.4169 32.6132 19.9369C32.6132 19.4568 32.2189 19.0625 31.7389 19.0625C31.2588 19.0625 30.8645 19.4568 30.8645 19.9369C30.8645 20.4255 31.2588 20.8112 31.7389 20.8112Z" fill="#3498B3"/>
<path d="M31.7392 22.6802C31.4134 22.6802 31.1562 22.9373 31.1562 23.2631C31.1562 23.5888 31.4134 23.846 31.7392 23.846C32.0649 23.846 32.3221 23.5888 32.3221 23.2631C32.3221 22.9459 32.0649 22.6802 31.7392 22.6802Z" fill="#3498B3"/>
<path d="M32.1501 25.8607C32.1501 25.6378 31.9701 25.4492 31.7386 25.4492C31.5072 25.4492 31.3271 25.6292 31.3271 25.8607C31.3271 26.0921 31.5072 26.2722 31.7386 26.2722C31.9701 26.2722 32.1501 26.0836 32.1501 25.8607Z" fill="#3498B3"/>
<path d="M31.7394 27.6089C31.5936 27.6089 31.4736 27.7289 31.4736 27.8746C31.4736 28.0204 31.5936 28.1404 31.7394 28.1404C31.8851 28.1404 32.0051 28.0204 32.0051 27.8746C32.0051 27.7289 31.8851 27.6089 31.7394 27.6089Z" fill="#3498B3"/>
<path d="M28.886 21.1371C29.3231 21.017 29.5803 20.5713 29.4603 20.1341C29.3403 19.6969 28.8945 19.4397 28.4573 19.5598C28.0202 19.6798 27.763 20.1255 27.883 20.5627C28.003 20.9913 28.4573 21.2485 28.886 21.1371Z" fill="#0AA496"/>
<path d="M29.0293 23.6913C29.1064 23.9742 29.3893 24.1371 29.6722 24.0599C29.9551 23.9828 30.118 23.6999 30.0408 23.417C29.9637 23.1341 29.6808 22.9713 29.3979 23.0484C29.1236 23.1256 28.9521 23.417 29.0293 23.6913Z" fill="#0AA496"/>
<path d="M29.8433 26.1688C29.8947 26.3745 30.109 26.4945 30.3062 26.4345C30.5119 26.3831 30.6319 26.1688 30.5719 25.9716C30.5205 25.7659 30.3062 25.6459 30.109 25.7059C29.9033 25.7573 29.7918 25.9631 29.8433 26.1688C29.8433 26.1602 29.8433 26.1602 29.8433 26.1688Z" fill="#0AA496"/>
<path d="M30.5033 28.0719C30.5376 28.2005 30.6662 28.2691 30.7862 28.2348C30.9148 28.2005 30.9833 28.0719 30.9491 27.9519C30.9148 27.8233 30.7862 27.7548 30.6662 27.7891C30.5462 27.8233 30.469 27.9434 30.5033 28.0719Z" fill="#0AA496"/>
<path d="M26.2018 22.1913C26.5619 21.9855 26.6904 21.5141 26.4847 21.154C26.279 20.794 25.8075 20.6654 25.4475 20.8711C25.0874 21.0769 24.9589 21.5483 25.1646 21.9084C25.3789 22.277 25.8418 22.397 26.2018 22.1913Z" fill="#00AA75"/>
<path d="M27.7173 24.8148C27.9402 24.6862 28.0174 24.4033 27.8888 24.1805C27.7602 23.9576 27.4773 23.8804 27.2544 24.009C27.0316 24.1376 26.9544 24.4205 27.083 24.6434C27.203 24.8662 27.4945 24.9434 27.7173 24.8148Z" fill="#00AA75"/>
<path d="M28.9545 26.9658C29.1259 26.8716 29.1773 26.6572 29.083 26.4858C28.9887 26.3144 28.7744 26.2629 28.603 26.3572C28.4315 26.4515 28.3801 26.6658 28.4744 26.8373C28.5773 27.0001 28.7916 27.0601 28.9545 26.9658Z" fill="#00AA75"/>
<path d="M29.965 28.3037C29.905 28.2094 29.785 28.1751 29.6821 28.2265C29.5878 28.2865 29.5535 28.4065 29.6049 28.5094C29.665 28.6037 29.785 28.638 29.8793 28.5866C29.9907 28.5266 30.025 28.398 29.965 28.3037Z" fill="#00AA75"/>
<path d="M23.8612 23.915C24.1356 23.6406 24.1356 23.1949 23.8612 22.9206C23.5869 22.6463 23.1412 22.6463 22.8669 22.9206C22.5926 23.1949 22.5926 23.6406 22.8669 23.915C23.1497 24.1893 23.5955 24.1893 23.8612 23.915Z" fill="#4FBA6A"/>
<path d="M26.0119 25.4835C25.8491 25.3206 25.5919 25.3206 25.4376 25.4835C25.2747 25.6464 25.2747 25.9035 25.4376 26.0578C25.6005 26.2207 25.8576 26.2207 26.0119 26.0578C26.1662 25.8949 26.1662 25.6378 26.0119 25.4835Z" fill="#4FBA6A"/>
<path d="M27.7888 27.3777C27.6602 27.2491 27.4631 27.2491 27.3345 27.3777C27.2059 27.5063 27.2059 27.7034 27.3345 27.832C27.4631 27.9606 27.6602 27.9606 27.7888 27.832C27.9088 27.7034 27.9088 27.5063 27.7888 27.3777Z" fill="#4FBA6A"/>
<path d="M29.1067 28.9038C29.0381 28.8352 28.9267 28.8438 28.8667 28.9124C28.7981 28.9809 28.8067 29.0924 28.8753 29.1524C28.9438 29.2124 29.0467 29.2124 29.1153 29.1524C29.1753 29.0838 29.1753 28.9724 29.1067 28.9038Z" fill="#4FBA6A"/>
<path d="M21.1528 26.4093C21.4614 26.5893 21.8557 26.4779 22.0272 26.1779C22.2072 25.8693 22.0957 25.4749 21.7957 25.3035C21.4871 25.1235 21.0928 25.2349 20.9213 25.5349C20.7413 25.835 20.8442 26.2293 21.1528 26.4093Z" fill="#7EC45F"/>
<path d="M24.5473 27.2323C24.3759 27.138 24.1701 27.198 24.0673 27.3609C23.973 27.5323 24.033 27.7381 24.1959 27.8409C24.3673 27.9352 24.573 27.8838 24.6759 27.7124C24.7702 27.5409 24.7102 27.3266 24.5473 27.2323Z" fill="#7EC45F"/>
<path d="M26.7661 28.5778C26.6289 28.5007 26.4489 28.5435 26.3718 28.6893C26.2946 28.8264 26.3375 29.0064 26.4832 29.0836C26.6204 29.1607 26.8004 29.1179 26.8775 28.9807C26.9547 28.8436 26.9033 28.6635 26.7661 28.5778Z" fill="#7EC45F"/>
<path d="M43.6021 30.3696C42.8306 30.3696 42.1963 30.9954 42.1963 31.7755C42.1963 32.547 42.8221 33.1813 43.6021 33.1813C44.3736 33.1813 44.9994 32.5555 45.008 31.784C44.9994 31.004 44.3736 30.3696 43.6021 30.3696Z" fill="#4C609B"/>
<path d="M41.2813 31.7754C41.2813 31.2182 40.8355 30.7725 40.2783 30.7725C39.7211 30.7725 39.2754 31.2182 39.2754 31.7754C39.2754 32.3326 39.7211 32.7784 40.2783 32.7784C40.827 32.7784 41.2813 32.3326 41.2813 31.7754Z" fill="#4C609B"/>
<path d="M37.6799 31.0894C37.3027 31.0894 36.9941 31.398 36.9941 31.7751C36.9941 32.1523 37.3027 32.4609 37.6799 32.4609C38.0571 32.4609 38.3657 32.1523 38.3657 31.7751C38.3657 31.398 38.0571 31.0894 37.6799 31.0894Z" fill="#4C609B"/>
<path d="M36.112 31.7749C36.112 31.5263 35.9148 31.3291 35.6662 31.3291C35.4176 31.3291 35.2205 31.5263 35.2205 31.7749C35.2205 32.0235 35.4176 32.2206 35.6662 32.2206C35.9148 32.2206 36.112 32.0235 36.112 31.7749Z" fill="#54669F"/>
<path d="M43.5274 33.5927C42.8416 33.4041 42.1387 33.8156 41.9501 34.5013C41.7615 35.1871 42.173 35.89 42.8588 36.0786C43.5445 36.2672 44.2475 35.8557 44.436 35.17C44.436 35.17 44.436 35.17 44.436 35.1614C44.6161 34.4842 44.2046 33.7813 43.5274 33.5927Z" fill="#746FA7"/>
<path d="M39.7514 34.8184C40.2143 34.947 40.6944 34.6641 40.8229 34.2012C40.9515 33.7383 40.6686 33.2583 40.2057 33.1297C39.7428 33.0011 39.2628 33.284 39.1342 33.7469C39.0056 34.2098 39.2799 34.6899 39.7514 34.8184Z" fill="#746FA7"/>
<path d="M37.3032 33.927C37.6461 34.0213 37.9975 33.8156 38.0918 33.4727C38.1861 33.1298 37.9804 32.7783 37.6375 32.684C37.2946 32.5897 36.9431 32.7955 36.8488 33.1384C36.7631 33.4813 36.9603 33.8327 37.3032 33.927Z" fill="#746FA7"/>
<path d="M35.4243 33.1813C35.6386 33.2413 35.8615 33.1127 35.9215 32.8898C35.9815 32.6755 35.853 32.4527 35.6301 32.3927C35.4158 32.3326 35.1929 32.4612 35.1329 32.6841C35.0729 32.8898 35.2015 33.1213 35.4243 33.1813C35.4243 33.1727 35.4243 33.1727 35.4243 33.1813Z" fill="#746FA7"/>
<path d="M42.593 36.6785C42.0358 36.3528 41.3243 36.5499 40.9986 37.1071C40.6728 37.6643 40.87 38.3758 41.4272 38.7016C41.9844 39.0273 42.6959 38.8301 43.0216 38.2729C43.3388 37.7157 43.1502 37.0043 42.593 36.6785Z" fill="#99558E"/>
<path d="M39.8397 36.4381C40.0626 36.0438 39.934 35.5466 39.5397 35.3238C39.1454 35.1009 38.6482 35.2295 38.4253 35.6238C38.2024 36.0181 38.331 36.5153 38.7253 36.7382C39.1111 36.961 39.6083 36.8239 39.8397 36.4381Z" fill="#99558E"/>
<path d="M37.3783 35.0239C37.5412 34.741 37.4469 34.3895 37.164 34.2267C36.8811 34.0638 36.5297 34.1581 36.3668 34.441C36.2039 34.7239 36.2982 35.0753 36.5811 35.2382C36.864 35.3925 37.2155 35.2982 37.3783 35.0239Z" fill="#99558E"/>
<path d="M35.4679 33.91C35.5708 33.73 35.5108 33.4985 35.3308 33.3871C35.1508 33.2842 34.9193 33.3442 34.8079 33.5242C34.6964 33.7043 34.765 33.9357 34.945 34.0471C34.945 34.0471 34.945 34.0471 34.9536 34.0471C35.1336 34.15 35.3651 34.09 35.4679 33.91Z" fill="#99558E"/>
<path d="M39.376 39.3959C38.9645 39.8074 38.9645 40.4675 39.376 40.8789C39.7875 41.2904 40.4475 41.2904 40.859 40.8789C41.2704 40.4675 41.2704 39.8074 40.859 39.3959C40.4561 38.993 39.7875 38.993 39.376 39.3959Z" fill="#AF3379"/>
<path d="M38.3053 38.3244C38.6054 38.0244 38.6054 37.5443 38.3053 37.2529C38.0053 36.9528 37.5253 36.9528 37.2338 37.2529C36.9338 37.5529 36.9338 38.0329 37.2338 38.3244C37.5253 38.6244 38.0053 38.6244 38.3053 38.3244Z" fill="#AF3379"/>
<path d="M36.3083 36.3268C36.514 36.1211 36.514 35.7868 36.3083 35.5811C36.1026 35.3753 35.7682 35.3753 35.5625 35.5811C35.3568 35.7868 35.3568 36.1211 35.5625 36.3183C35.7682 36.5326 36.1026 36.5326 36.3083 36.3268Z" fill="#AF3379"/>
<path d="M34.2679 34.7758C34.4051 34.913 34.6279 34.913 34.7651 34.7758C34.9022 34.6387 34.9022 34.4158 34.7651 34.2786C34.6279 34.1415 34.4051 34.1415 34.2679 34.2786C34.1308 34.4158 34.1308 34.6387 34.2679 34.7758Z" fill="#AF3379"/>
<path d="M37.1719 41.1617C36.7004 41.436 36.5375 42.0446 36.8118 42.5161C37.0861 42.9876 37.6948 43.1504 38.1662 42.8761C38.6377 42.6018 38.8006 41.9932 38.5263 41.5217C38.252 41.0502 37.6433 40.8874 37.1719 41.1617Z" fill="#BE266A"/>
<path d="M36.6074 38.7958C36.4103 38.4615 35.9902 38.3415 35.6474 38.5386C35.313 38.7358 35.193 39.1558 35.3902 39.4987C35.5874 39.833 36.0074 39.953 36.3503 39.7559C36.6846 39.5587 36.8046 39.1301 36.6074 38.7958Z" fill="#BE266A"/>
<path d="M34.9356 37.2958C35.1585 37.1672 35.2356 36.8843 35.107 36.6614C34.9785 36.4385 34.6956 36.3614 34.4727 36.49C34.2498 36.6186 34.1727 36.9014 34.3013 37.1243C34.4298 37.3472 34.7127 37.4244 34.9356 37.2958Z" fill="#BE266A"/>
<path d="M33.538 34.8699C33.3837 34.9556 33.3323 35.1528 33.418 35.3071C33.5037 35.4614 33.7009 35.5128 33.8552 35.4271C34.0095 35.3414 34.0609 35.1442 33.9752 34.9899C33.8895 34.8356 33.6923 34.7842 33.538 34.8699Z" fill="#BE266A"/>
<path d="M34.5693 42.3018C34.0721 42.439 33.7721 42.9447 33.9092 43.4419C34.0464 43.9391 34.5522 44.2391 35.0493 44.102C35.5465 43.9648 35.8466 43.4591 35.7094 42.9619C35.5808 42.4647 35.0665 42.1647 34.5693 42.3018Z" fill="#D4525C"/>
<path d="M34.1143 40.6047C34.4572 40.5104 34.6629 40.159 34.5686 39.8161C34.4743 39.4732 34.1229 39.2675 33.78 39.3618C33.4371 39.4561 33.2399 39.8075 33.3257 40.1504C33.4199 40.5019 33.7714 40.699 34.1143 40.6047C34.1143 40.6133 34.1143 40.6133 34.1143 40.6047Z" fill="#D4525C"/>
<path d="M33.693 37.3647C33.633 37.1332 33.393 36.9961 33.1616 37.0561C32.9301 37.1161 32.7929 37.3561 32.853 37.5876C32.913 37.819 33.153 37.9562 33.3844 37.8962C33.6245 37.8447 33.7616 37.6047 33.693 37.3647C33.693 37.3732 33.693 37.3732 33.693 37.3647Z" fill="#D4525C"/>
<path d="M33.0322 35.4612C32.9893 35.3069 32.8264 35.2126 32.6721 35.2555C32.5178 35.2983 32.4236 35.4612 32.4664 35.6155C32.5093 35.7698 32.6636 35.8641 32.8264 35.8212C32.9807 35.7784 33.075 35.6155 33.0322 35.4612Z" fill="#D4525C"/>
<path d="M31.7389 42.7305C31.2588 42.7305 30.8645 43.1248 30.8645 43.6048C30.8645 44.0849 31.2588 44.4792 31.7389 44.4792C32.2189 44.4792 32.6132 44.0935 32.6132 43.6048C32.6132 43.1248 32.2275 42.7305 31.7389 42.7305Z" fill="#E0654F"/>
<path d="M31.1562 40.2787C31.1562 40.6045 31.4134 40.8616 31.7392 40.8616C32.0649 40.8616 32.3221 40.6045 32.3221 40.2787C32.3221 39.953 32.0649 39.6958 31.7392 39.6958C31.422 39.6958 31.1562 39.953 31.1562 40.2787Z" fill="#E0654F"/>
<path d="M31.7386 38.0842C31.9615 38.0842 32.1501 37.9041 32.1501 37.6727C32.1501 37.4412 31.9701 37.2612 31.7386 37.2612C31.5157 37.2612 31.3271 37.4412 31.3271 37.6727C31.3357 37.9041 31.5157 38.0842 31.7386 38.0842C31.7386 38.0927 31.7386 38.0927 31.7386 38.0842Z" fill="#E0654F"/>
<path d="M31.7394 35.4014C31.5936 35.4014 31.4736 35.5214 31.4736 35.6671C31.4736 35.8128 31.5936 35.9328 31.7394 35.9328C31.8851 35.9328 32.0051 35.8128 32.0051 35.6671C32.0051 35.5214 31.8851 35.4014 31.7394 35.4014Z" fill="#E0654F"/>
<path d="M28.8854 42.4049C28.4482 42.2849 28.0024 42.5506 27.8824 42.9792C27.7624 43.4164 28.0281 43.8622 28.4568 43.9822C28.8939 44.1022 29.3397 43.8364 29.4597 43.4078C29.5797 42.9706 29.3226 42.5249 28.8854 42.4049Z" fill="#F57F2A"/>
<path d="M29.6722 39.4731C29.3893 39.396 29.1064 39.5674 29.0293 39.8417C28.9521 40.1246 29.1236 40.4075 29.3979 40.4847C29.6808 40.5618 29.9637 40.3904 30.0408 40.1161C30.118 39.8417 29.9551 39.5503 29.6722 39.4731Z" fill="#F57F2A"/>
<path d="M30.3088 37.1071C30.1031 37.0557 29.8973 37.1757 29.8459 37.3729C29.7945 37.5786 29.9145 37.7843 30.1116 37.8358C30.3174 37.8872 30.5231 37.7672 30.5745 37.57C30.6345 37.3729 30.5145 37.1671 30.3088 37.1071Z" fill="#F57F2A"/>
<path d="M30.9599 35.59C30.9942 35.4614 30.9171 35.3328 30.797 35.3071C30.677 35.2814 30.5399 35.35 30.5142 35.47C30.4884 35.59 30.557 35.7272 30.677 35.7529C30.797 35.7872 30.9256 35.7186 30.9599 35.59Z" fill="#F57F2A"/>
<path d="M26.2011 41.3503C25.841 41.1446 25.3781 41.2646 25.1638 41.6246C24.9581 41.9847 25.0781 42.4476 25.4381 42.6619C25.7982 42.8676 26.2611 42.7476 26.4754 42.3876C26.6897 42.0275 26.5611 41.5646 26.2011 41.3503Z" fill="#F89828"/>
<path d="M27.7173 38.7278C27.4945 38.5992 27.2116 38.6763 27.083 38.8992C26.9544 39.1221 27.0316 39.405 27.2544 39.5336C27.4773 39.6621 27.7602 39.585 27.8888 39.3621C28.0174 39.1392 27.9402 38.8564 27.7173 38.7278Z" fill="#F89828"/>
<path d="M28.6088 37.1846C28.7803 37.2789 28.9946 37.2275 29.0889 37.056C29.1832 36.8846 29.1318 36.6703 28.9603 36.576C28.7889 36.4817 28.5746 36.5331 28.4803 36.7046C28.386 36.876 28.4374 37.0903 28.6088 37.1846Z" fill="#F89828"/>
<path d="M29.8947 34.9558C29.8004 34.8958 29.6718 34.9301 29.6203 35.0329C29.5603 35.1272 29.5946 35.2558 29.6975 35.3073C29.7918 35.3673 29.9204 35.333 29.9718 35.2301C30.0232 35.1444 29.989 35.0158 29.8947 34.9558C29.8947 34.9644 29.8947 34.9644 29.8947 34.9558Z" fill="#F89828"/>
<path d="M22.8737 39.6271C22.5994 39.9014 22.5994 40.3472 22.8737 40.6215C23.148 40.8958 23.5938 40.8958 23.8681 40.6215C24.1424 40.3472 24.1424 39.9014 23.8681 39.6271C23.5938 39.3528 23.148 39.3528 22.8737 39.6271Z" fill="#FEC127"/>
<path d="M25.4376 37.4845C25.2747 37.6473 25.2747 37.9045 25.4376 38.0588C25.6005 38.2217 25.8576 38.2217 26.0119 38.0588C26.1662 37.8959 26.1748 37.6388 26.0119 37.4845C25.8576 37.3216 25.5919 37.3216 25.4376 37.4845Z" fill="#FEC127"/>
<path d="M27.3345 35.7097C27.2059 35.8383 27.2059 36.0355 27.3345 36.164C27.4631 36.2926 27.6602 36.2926 27.7888 36.164C27.9174 36.0355 27.9174 35.8383 27.7888 35.7097C27.6602 35.5811 27.4545 35.5811 27.3345 35.7097Z" fill="#FEC127"/>
<path d="M29.1067 34.3896C29.0381 34.3211 28.9267 34.3296 28.8667 34.3982C28.7981 34.4668 28.8067 34.5782 28.8753 34.6382C28.9438 34.6982 29.0467 34.6982 29.1153 34.6382C29.1753 34.5696 29.1753 34.4582 29.1067 34.3896Z" fill="#FEC127"/>
<path d="M21.1696 37.1159C20.861 37.2959 20.7582 37.6817 20.9382 37.9903C21.1182 38.2989 21.504 38.4018 21.8126 38.2217C22.1212 38.0417 22.224 37.656 22.044 37.3474C21.8726 37.0388 21.4782 36.9359 21.1696 37.1159Z" fill="#FED627"/>
<path d="M24.1959 35.7015C24.033 35.7958 23.973 36.0101 24.0673 36.1816C24.1616 36.3445 24.3759 36.4045 24.5473 36.3102C24.7102 36.2159 24.7702 36.0016 24.6759 35.8301C24.5816 35.6673 24.3673 35.6073 24.1959 35.7015Z" fill="#FED627"/>
<path d="M26.4758 34.4584C26.3387 34.5356 26.2872 34.7156 26.373 34.8527C26.4501 34.9899 26.6301 35.0413 26.7673 34.9556C26.9044 34.8785 26.9559 34.6984 26.8702 34.5613C26.793 34.4241 26.613 34.3727 26.4758 34.4584Z" fill="#FED627"/>
<path d="M19.8648 29.7353H20.8935V33.6957H19.8648V29.7353ZM20.4906 27.9694C20.1734 27.8837 19.8477 28.0723 19.762 28.3895C19.6763 28.7066 19.8648 29.0324 20.182 29.1181C20.4992 29.2038 20.8249 29.0152 20.9107 28.6981C20.9964 28.3809 20.8078 28.0466 20.4906 27.9694ZM24.0738 33.7814C23.8252 33.7814 23.5766 33.7385 23.3452 33.6357C23.1394 33.5414 22.9594 33.3956 22.8223 33.2156V35.6759H21.8193V29.7353H22.8137V30.2839C22.9423 30.0868 23.1223 29.9325 23.3366 29.821C23.5595 29.7096 23.8081 29.6496 24.0652 29.6496C24.3138 29.6496 24.5539 29.701 24.7853 29.7953C25.0168 29.8896 25.2225 30.0353 25.3939 30.2068C25.574 30.3954 25.7197 30.6182 25.814 30.8583C25.9254 31.1326 25.9768 31.4155 25.9683 31.7069C25.9768 31.9984 25.9168 32.2898 25.8054 32.5641C25.7025 32.8042 25.5568 33.027 25.3768 33.2156C25.0425 33.5757 24.5624 33.7814 24.0738 33.7814ZM23.8681 32.8213C24.0138 32.8213 24.1595 32.7956 24.2967 32.7356C24.4253 32.6756 24.5453 32.5984 24.6481 32.4956C24.751 32.3927 24.8282 32.2727 24.8796 32.1441C24.991 31.8612 24.991 31.5526 24.8796 31.2697C24.8282 31.1411 24.7424 31.0211 24.6481 30.9183C24.5453 30.8154 24.4253 30.7382 24.2967 30.6782C24.1595 30.6182 24.0138 30.5925 23.8681 30.5925C23.5766 30.5925 23.2937 30.7125 23.0794 30.9183C22.9766 31.0211 22.8994 31.1411 22.848 31.2697C22.7365 31.5526 22.7365 31.8612 22.848 32.1355C22.8994 32.2641 22.9766 32.3841 23.0794 32.487C23.2937 32.7099 23.5766 32.8299 23.8681 32.8213ZM26.7055 29.7353H27.6999V30.3439C27.7856 30.1296 27.9313 29.9496 28.1285 29.8296C28.3342 29.7182 28.5571 29.6581 28.7971 29.6667C28.9257 29.6667 29.0457 29.6839 29.1657 29.7096C29.2686 29.7353 29.3714 29.7696 29.4657 29.821L29.0971 30.8154C29.0286 30.7725 28.9514 30.7382 28.8743 30.7125C28.7714 30.6868 28.6685 30.6697 28.5657 30.6697C28.3342 30.6611 28.1113 30.7382 27.9399 30.884C27.7856 31.0297 27.7084 31.2697 27.7084 31.5955V33.6871H26.7055V29.7353ZM31.7031 33.7814C31.4202 33.7814 31.1373 33.73 30.8716 33.6185C30.623 33.5157 30.4001 33.3614 30.203 33.1728C29.8172 32.787 29.6029 32.2641 29.6029 31.7155C29.6029 31.4412 29.6543 31.1669 29.7572 30.9097C29.8601 30.6611 30.0058 30.4382 30.1944 30.2496C31.0259 29.4438 32.346 29.4438 33.1775 30.2496C33.5633 30.6354 33.7861 31.1583 33.7861 31.7069C33.7861 31.9812 33.7347 32.2555 33.6233 32.5041C33.5204 32.7527 33.3661 32.9756 33.1861 33.1642C32.9975 33.3528 32.7746 33.5071 32.5175 33.6099C32.2689 33.7214 31.986 33.7814 31.7031 33.7814ZM31.7117 32.8213C31.8574 32.8213 32.0031 32.7956 32.1403 32.7356C32.2689 32.6756 32.3803 32.5984 32.4832 32.5041C32.586 32.4013 32.6632 32.2812 32.7146 32.1527C32.8261 31.8698 32.8261 31.5612 32.7146 31.2869C32.6632 31.1583 32.586 31.0383 32.4832 30.9354C32.3803 30.8325 32.2689 30.7554 32.1403 30.704C31.866 30.5839 31.5574 30.5839 31.2916 30.704C31.163 30.764 31.0516 30.8411 30.9487 30.9354C30.8459 31.0383 30.7687 31.1583 30.7173 31.2869C30.6059 31.5698 30.6059 31.8784 30.7173 32.1527C30.7687 32.2812 30.8459 32.4013 30.9487 32.5041C31.0516 32.607 31.163 32.6841 31.2916 32.7356C31.4202 32.787 31.5659 32.8213 31.7117 32.8213ZM12.707 29.7353H13.7357L14.5329 32.2641L15.4759 29.7353H16.3674L17.2932 32.2641L18.1247 29.7353H19.1533L17.8075 33.6957H16.856L15.913 31.1154L14.9615 33.6957H13.9929L12.707 29.7353Z" fill="#351A55"/>
</g>
<defs>
<clipPath id="clip0_69_472">
<rect width="32.3002" height="25.4167" fill="white" transform="translate(12.707 19.0625)"/>
</clipPath>
</defs>
</svg>
